<?xml version="1.0" standalone="no"?>
<!DOCTYPE svg PUBLIC "-//W3C//DTD SVG 20010904//EN"
 "http://www.w3.org/TR/2001/REC-SVG-20010904/DTD/svg10.dtd">
<svg version="1.0" xmlns="http://www.w3.org/2000/svg"
 width="3288.000000pt" height="2381.000000pt" viewBox="0 0 3288.000000 2381.000000"
 preserveAspectRatio="xMidYMid meet">
<metadata>
Created for x42 Logo
</metadata>
<g transform="translate(0.000000,2381.000000) scale(0.100000,-0.100000)"
fill="#000000" stroke="none">
<path d="M2150 23802 c0 -4 12 -24 26 -45 17 -25 31 -36 41 -33 8 3 17 6 19 6
2 0 4 7 4 15 0 13 1430 15 12809 15 l12809 0 -681 -1142 c-375 -629 -1895
-3175 -3377 -5660 l-2695 -4516 -28 15 c-51 26 -179 53 -253 53 l-72 0 -6 38
c-12 72 -706 5130 -706 5141 0 6 33 27 73 47 103 52 222 173 269 274 48 101
62 167 61 280 -1 114 -33 225 -88 309 -20 29 -34 55 -33 56 286 202 5375 3921
5401 3946 24 24 37 46 37 63 l0 26 -12881 0 -12881 0 4 -22 c3 -13 2897 -4869
6432 -10793 4503 -7547 6432 -10771 6445 -10773 10 -2 21 4 24 12 4 9 -2554
4305 -6409 10766 -3528 5914 -6413 10754 -6411 10756 2 2 5764 3 12805 2
l12801 -3 -2702 -1971 -2702 -1972 -40 38 c-57 55 -148 107 -240 137 -101 32
-263 36 -364 9 -293 -79 -488 -344 -468 -635 7 -96 22 -152 64 -237 27 -56 27
-57 8 -70 -11 -8 -780 -569 -1710 -1247 l-1690 -1234 -65 65 c-156 156 -321
250 -531 303 -118 29 -341 37 -466 15 -422 -73 -758 -374 -869 -778 -31 -116
-42 -297 -25 -419 48 -334 270 -639 576 -792 144 -71 313 -117 435 -117 l57 0
6 -902 c4 -497 10 -1498 14 -2225 l6 -1323 -27 0 c-52 0 -150 -31 -231 -73
-148 -77 -263 -216 -315 -382 -33 -104 -32 -261 4 -371 73 -228 292 -413 520
-440 l53 -6 7 -762 c3 -418 11 -1733 17 -2921 6 -1188 13 -2162 16 -2165 2 -2
7 1 11 7 4 7 1238 2075 2741 4596 l2735 4583 58 -23 c86 -35 161 -46 278 -40
266 13 486 177 568 424 21 65 25 97 26 188 0 94 -4 121 -27 188 -43 124 -126
239 -217 302 -22 15 -40 31 -40 36 0 6 6660 11176 6772 11357 l20 32 -12901 0
c-7096 0 -12901 -3 -12901 -8z m17182 -5938 c35 -40 140 -117 185 -136 l30
-13 -2114 -4234 c-1162 -2329 -2115 -4236 -2117 -4238 -2 -3 -34 5 -70 16 -36
11 -98 23 -139 27 l-74 6 -6 1322 c-4 726 -10 1724 -14 2217 l-6 896 89 6
c364 27 704 258 870 592 82 166 107 272 107 465 0 135 -4 168 -26 252 -27 104
-87 240 -136 314 -17 25 -31 48 -31 52 1 8 3401 2490 3413 2491 4 1 22 -15 39
-35z m396 -196 c65 -9 102 -9 169 1 47 6 87 11 89 9 1 -2 160 -1151 353 -2553
193 -1403 353 -2566 356 -2586 l6 -36 -56 -12 c-138 -31 -293 -140 -374 -264
-117 -180 -130 -385 -37 -607 6 -14 -735 -435 -4595 -2609 -25 -14 -27 -13
-94 57 -37 40 -93 89 -124 110 l-57 38 2115 4238 c2067 4140 2116 4237 2141
4232 14 -3 62 -11 108 -18z m564 -6136 c18 -30 92 -102 143 -139 25 -18 28
-25 19 -40 -126 -216 -5377 -9013 -5379 -9011 -2 2 -8 923 -14 2048 -6 1125
-14 2397 -17 2826 l-7 782 54 6 c116 15 167 29 256 72 157 75 281 215 334 375
20 63 24 93 24 199 -1 111 -4 133 -29 200 -15 41 -28 81 -29 88 -1 8 911 529
2308 1317 1271 717 2312 1304 2315 1304 3 1 13 -12 22 -27z"/>
<path d="M25215 17266 c-1808 -3067 -2601 -4403 -2610 -4400 -10 4 -15 -5 -17
-28 -2 -24 -263 -475 -847 -1466 -831 -1409 -845 -1431 -885 -1448 -41 -16
-41 -16 -20 -33 21 -17 1 -51 -2860 -4903 -1585 -2688 -2884 -4884 -2888
-4880 -27 26 -12918 21397 -12909 21400 6 2 11 15 11 28 0 23 -3 24 -56 24
-40 0 -55 -4 -52 -12 8 -23 13003 -21547 13009 -21548 4 0 1308 2208 2900
4908 1591 2699 2898 4915 2904 4924 10 16 40 1 288 -142 l277 -160 418 216
c473 245 707 369 869 461 62 34 115 63 118 63 3 0 5 -89 5 -197 1 -234 64
-1396 76 -1400 5 -2 153 -86 328 -188 176 -101 321 -183 323 -181 2 2 -33 484
-77 1072 -65 877 -77 1071 -67 1078 8 5 423 198 923 430 500 231 908 425 908
430 -1 6 -140 90 -310 187 l-308 177 -427 -214 c-362 -180 -659 -337 -870
-458 l-47 -26 -7 227 c-9 309 -71 1283 -81 1293 -5 5 -133 81 -284 168 -163
94 -275 165 -274 173 1 8 1167 1992 2592 4408 1971 3343 2589 4398 2580 4408
-6 7 -16 13 -23 13 -7 0 -1181 -1982 -2610 -4404z m-2078 -4768 c43 -24 53
-36 57 -61 10 -63 66 -1056 72 -1278 9 -284 2 -275 147 -191 204 119 281 160
761 403 l490 247 245 -140 c135 -78 252 -146 258 -152 9 -8 -212 -115 -882
-426 -761 -352 -895 -417 -895 -434 0 -12 34 -479 76 -1039 42 -560 74 -1021
71 -1024 -10 -9 -539 302 -547 322 -12 30 -71 1183 -70 1376 0 262 -3 266
-132 191 -116 -69 -419 -231 -778 -417 -168 -86 -359 -186 -426 -221 l-121
-63 -267 154 -268 153 28 15 c16 8 439 207 939 442 501 235 912 429 914 431 4
4 -141 1800 -156 1942 l-6 53 219 -127 c120 -69 242 -140 271 -156z m-453
-753 c42 -506 72 -922 68 -926 -4 -3 -398 -190 -877 -414 -478 -225 -874 -411
-879 -413 -12 -7 -94 -147 824 1410 673 1142 776 1312 782 1289 4 -14 41 -440
82 -946z"/>
<path d="M27275 10984 c-275 -129 -1004 -471 -1620 -760 l-1120 -525 -109
-190 c-59 -105 -107 -192 -105 -193 2 -2 405 -234 894 -516 490 -282 902 -520
917 -529 l27 -17 -310 -538 c-236 -410 -307 -541 -297 -547 38 -25 518 -299
529 -303 10 -4 110 163 323 533 l309 538 216 -124 c119 -69 243 -141 275 -160
32 -19 62 -30 67 -26 21 22 259 448 255 457 -2 6 -126 81 -274 166 -149 85
-268 159 -265 164 3 5 322 558 709 1229 550 954 701 1224 691 1233 -20 18
-576 336 -595 340 -9 2 -242 -102 -517 -232z m785 21 c146 -84 264 -157 263
-162 -1 -4 -319 -559 -707 -1232 -512 -888 -703 -1227 -694 -1233 7 -4 131
-76 276 -159 144 -83 262 -154 262 -157 0 -3 -48 -88 -106 -189 l-106 -183
-32 19 c-24 14 -491 283 -517 297 -4 2 -143 -234 -309 -524 -167 -290 -307
-532 -312 -539 -7 -8 -74 25 -236 119 -125 72 -228 131 -229 132 -1 1 138 244
308 540 171 296 307 542 302 546 -6 6 -1756 1014 -1815 1046 -16 8 -7 28 73
169 51 88 93 161 94 163 7 8 3201 1501 3210 1501 6 0 129 -69 275 -154z"/>
<path d="M27395 10561 c-398 -245 -473 -282 -1380 -691 -478 -216 -878 -400
-888 -408 -10 -9 -16 -22 -15 -30 4 -16 1330 -783 1340 -774 3 4 201 345 438
757 352 611 546 936 713 1197 9 14 7 21 -8 32 -11 9 -24 15 -30 16 -5 0 -82
-44 -170 -99z m99 -18 c-104 -160 -777 -1310 -1030 -1760 -16 -29 -33 -53 -38
-53 -5 0 -284 159 -621 353 -574 330 -611 353 -589 365 13 7 402 184 865 393
861 389 944 430 1294 647 72 44 132 80 134 81 2 1 -5 -11 -15 -26z"/>
<path d="M29316 9945 c-54 -8 -100 -16 -102 -18 -6 -5 -55 -519 -50 -524 2 -2
35 2 72 9 109 21 459 17 563 -5 283 -61 484 -167 667 -351 88 -89 108 -115
147 -197 109 -225 99 -443 -33 -716 -142 -292 -401 -523 -793 -708 -380 -179
-784 -303 -1901 -583 l-669 -168 -103 -179 c-57 -98 -101 -182 -96 -186 26
-26 2566 -1479 2572 -1472 6 6 220 375 276 475 2 3 -390 233 -871 510 -481
276 -875 505 -875 508 0 3 60 18 133 34 452 99 1069 266 1417 385 812 276
1274 610 1524 1101 115 225 160 404 160 645 1 178 -13 263 -65 413 -209 599
-952 1046 -1727 1041 -81 -1 -191 -7 -246 -14z m501 -50 c229 -30 416 -87 628
-190 465 -226 753 -556 841 -965 24 -114 25 -341 1 -463 -88 -442 -384 -836
-832 -1110 -425 -259 -1127 -496 -2145 -726 -253 -58 -290 -71 -290 -102 0 -4
400 -237 889 -519 l888 -512 -114 -196 c-62 -109 -119 -196 -125 -194 -13 4
-2459 1411 -2470 1421 -10 10 160 295 182 303 10 4 315 81 677 172 1131 284
1522 406 1908 596 431 211 718 506 834 855 73 222 64 439 -26 620 -132 262
-458 488 -818 565 -120 26 -416 38 -540 22 -44 -6 -82 -9 -84 -7 -4 4 25 329
35 392 5 31 5 31 87 41 130 15 345 13 474 -3z"/>
</g>
</svg>
